<?xml version="1.0" encoding="UTF-8" standalone="no"?>
<!-- Created with Inkscape (http://www.inkscape.org/) -->

<svg
   width="67.848289mm"
   height="67.848289mm"
   viewBox="0 0 67.84829 67.84829"
   version="1.1"
   id="svg1"
   xmlns="http://www.w3.org/2000/svg"
   xmlns:svg="http://www.w3.org/2000/svg">
  <defs
     id="defs1" />
  <g
     id="token"
     transform="matrix(0.30842431,0,0,0.30842431,-738.51558,-22.767496)">
    <path
       style="fill:#000000;fill-opacity:1;stroke:#ffffff;stroke-width:4.78228;stroke-dasharray:none;stroke-opacity:1"
       id="background"
       d="m 189.80763,124.36876 -41.59531,-10e-6 L 118.8,94.956427 V 53.361118 l 29.41233,-29.412323 41.59531,3e-6 29.41232,29.412326 v 41.595308 z"
       transform="matrix(2.0910543,0,0,2.0910543,2151.0619,28.740519)" />
    <g
       id="icon"
       style="fill:#ffffff;fill-opacity:1;stroke:none;">
      <path
         d="m 2522.7471,139.92949 c 3.1898,2.59037 5.7125,5.61212 9.1973,7.60282 0.5278,0.23201 1.082,0.52757 1.5588,0.54458 0.7256,0.0839 1.4104,-0.30694 2.0219,-0.67253 2.4772,-1.80668 4.2182,-4.97968 5.5342,-7.89999 2.0277,-4.80408 3.3786,-9.84682 4.4167,-15.01556 0.03,-0.15085 0.1768,-0.24919 0.3278,-0.21881 0.1351,0.0285 0.2202,0.14288 0.2277,0.27407 0.8229,5.38536 0.7653,10.90326 -0.1328,16.30981 -3.25,20.53093 -19.6,20.21689 -29.9343,4.56329 -2.7877,-4.53433 2.9385,-9.09032 6.7827,-5.48768 z"
         style="fill-opacity:1"
         id="l-arm" />
      <path
         d="m 2494.4926,140.86698 c -4.2321,-1.5439 -8.2711,-3.40275 -12.7439,-3.88324 -11.0516,-1.42021 -8.5381,18.41548 -7.0198,25.17286 0.069,0.32199 -0.4049,0.47014 -0.5344,0.16228 -4.3908,-7.38679 -8.2968,-19.24477 -4.1292,-27.49939 5.725,-10.65046 20.7795,-7.47192 28.8759,-1.45737 4.1961,3.27262 0.3985,9.57181 -4.449,7.50501 v 0 z"
         style="fill-opacity:1"
         id="r-arm" />
      <path
         d="m 2512.7626,169.61251 c -3.0688,-1.39355 -5.9484,-2.23051 -9.0369,-3.11667 -5.7496,-1.5736 -11.2207,-2.98333 -17.1285,-2.76407 0,0 -1.0278,0.0365 -1.0278,0.0365 -2.3124,0.0922 -4.4446,1.5678 -5.261,3.88335 -1.0693,3.03287 0.2929,7.34894 3.326,8.41868 0.5214,0.17712 2.5893,0.5292 5.1701,0.94012 -0.2903,0.58539 -0.5775,1.17148 -0.8651,1.75403 -3.2427,6.69474 -5.8884,13.71319 -8.8305,20.56573 -3.7235,8.44844 -7.855,17.54007 -11.7116,25.89176 -0.075,0.16024 -0.038,0.35665 0.1029,0.47732 0.1762,0.15485 0.4483,0.11922 0.5885,-0.064 9.6493,-11.39132 18.6458,-23.25032 27.5201,-35.23234 1.5247,-2.12573 3.1218,-4.47468 4.5585,-6.67209 0.9604,-1.43143 1.8922,-2.88583 2.7013,-4.39743 2.4656,0.48765 4.9871,1.04153 7.2139,1.87244 -0.7132,1.48789 -1.746,2.8473 -2.8209,4.26554 -5.2536,6.73788 -11.382,13.15287 -16.6537,19.94194 -0.2937,0.34596 0.1343,0.82635 0.5123,0.62186 7.8181,-4.34603 15.3891,-8.89779 22.3753,-14.60779 2.7443,-2.3898 5.5125,-4.80064 6.9547,-8.45701 2.3091,-6.34028 -2.3227,-11.09025 -7.6869,-13.3572 z"
         style="fill-opacity:1"
         id="legs" />
      <circle
         cx="2515.2737"
         cy="126.33392"
         style="fill-opacity:1"
         id="head"
         r="9.2950134" />
      <path
         id="stairs"
         style="fill-opacity:1"
         d="M 2584.2595 142.39185 L 2584.2595 162.59501 L 2564.058 162.59501 L 2564.058 182.79984 L 2543.8548 182.79984 L 2543.8548 203.003 L 2523.6533 203.003 L 2523.6533 223.20783 L 2503.4502 223.20783 L 2503.4502 243.41098 L 2483.247 243.41098 L 2483.247 263.61414 L 2463.0456 263.61414 L 2463.0456 283.79551 L 2463.0523 283.80221 L 2545.8889 283.80221 L 2604.4626 225.22848 L 2604.4626 142.39185 L 2584.2595 142.39185 z " />
    </g>
  </g>
</svg>
