<?xml version="1.0" encoding="UTF-8" standalone="no"?>
<!-- Created with Inkscape (http://www.inkscape.org/) -->

<svg
   width="67.848289mm"
   height="67.848289mm"
   viewBox="0 0 67.84829 67.84829"
   version="1.1"
   id="svg1"
   xmlns="http://www.w3.org/2000/svg"
   xmlns:svg="http://www.w3.org/2000/svg">
  <defs
     id="defs1" />
  <g
     id="token"
     transform="matrix(0.30842431,0,0,0.30842431,-883.28097,13.05663)">
    <path
       style="fill:#000000;fill-opacity:1;stroke:#ffffff;stroke-width:4.78228;stroke-dasharray:none;stroke-opacity:1"
       id="background"
       d="m 189.80763,124.36876 -41.59531,-10e-6 L 118.8,94.956427 V 53.361118 l 29.41233,-29.412323 41.59531,3e-6 29.41232,29.412326 v 41.595308 z"
       transform="matrix(2.0910543,0,0,2.0910543,2620.4328,-87.411564)" />
    <g
       id="icon"
       style="fill:#ffffff;fill-opacity:1;stroke:none">
      <path
         d="m 2958.0729,-1.3283338 c -9.0047,-0.3526521 -17.8672,5.2333036 -21.1117,13.7144028 -3.335,6.784345 -11.0567,8.215207 -17.1802,11.20884 -8.0861,5.195957 -11.9828,15.955757 -8.8015,25.094776 1.8063,7.340829 -3.1895,13.400113 -5.956,19.629437 -2.8547,9.178022 1.0767,19.925089 9.3881,24.881126 6.1022,4.462563 6.1705,12.315442 8.0553,18.865852 3.7124,8.86599 13.6323,14.57112 23.1848,13.02516 7.5429,-0.5034 12.643,5.46798 18.2973,9.27435 8.5429,4.40538 19.8092,2.39929 26.1333,-4.92519 5.4546,-5.23401 13.1997,-3.93805 19.9779,-4.65645 9.3762,-2.11619 16.7171,-10.89524 16.8536,-20.57112 0.814,-7.515688 7.5803,-11.501419 12.3107,-16.408799 5.8219,-7.648092 5.8028,-19.091706 -0.3122,-26.591515 -4.2076,-6.280459 -1.5862,-13.682941 -1.1169,-20.482812 -0.4564,-9.600987 -7.8266,-18.355136 -17.3319,-20.169606 -7.2606,-2.106353 -10.0103,-9.462547 -14.0217,-14.9733502 -6.521,-7.0615562 -17.7941,-9.0296939 -26.2418,-4.3099962 -6.9159,3.0531423 -13.7506,-0.81434945 -20.3659,-2.4570818 l -0.8633,-0.092813 z m -0.4625,9.7105057 c 6.3327,2.0871051 12.8037,4.9923691 19.6935,3.7587931 6.2141,-0.121671 11.8656,-6.1013581 17.9863,-2.4041414 6.4861,2.2324374 6.696,10.7916134 12.2797,14.4190434 4.4666,5.310818 12.1818,5.283857 17.0978,9.490624 5.1769,5.010855 2.2251,11.627372 1.801,17.712559 -0.2794,7.093256 2.6864,13.779948 6.6584,19.490057 2.2886,6.488017 -2.0035,12.630986 -7.4956,15.820386 -5.9517,5.409373 -8.7242,13.355407 -9.3434,21.206857 -2.4179,6.44072 -9.6538,8.3881 -15.9112,7.30109 -8.0362,0.3185 -15.2679,4.62306 -20.7891,10.23955 -5.9921,3.37914 -12.7875,0.22084 -16.8819,-4.63455 -6.3605,-4.92177 -14.6671,-6.27284 -22.5067,-5.51928 -6.7632,-1.26187 -9.9373,-8.0506 -9.9535,-14.40162 -1.7092,-7.858592 -7.2036,-14.233216 -13.6935,-18.695178 -4.3692,-5.313907 -2.438,-12.554622 1.6323,-17.430011 3.7424,-7.11867 3.6306,-15.53375 1.5272,-23.123467 0.069,-6.879365 6.2025,-11.184527 12.4544,-12.302901 7.4428,-3.047483 12.766,-9.565908 16.0333,-16.731943 2.1035,-2.7664691 6.1512,-3.6867946 9.411,-4.1958681 z"
         id="outer-flower"
         style="fill-opacity:1;stroke-width:0.264583" />
      <path
         d="m 2984.4705,109.84442 c 5.1397,-0.76195 11.6682,-2.85709 12.8247,-8.66398 1.0887,-5.095145 -3.406,-8.540257 -6.7346,-11.470392 -4.9629,-2.333942 2.3964,-8.508285 3.8328,-3.215527 2.3075,3.786743 4.9191,8.811733 10.126,8.624059 5.9234,-0.112654 9.1129,-6.222122 10.7599,-11.125485 1.6502,-5.323413 -3.2183,-10.606225 -8.5344,-10.42634 -3.3902,0.03132 -10.623,0.682034 -7.4797,-4.905629 3.2478,-1.996675 7.7113,2.28359 11.576,1.811148 5.9352,0.223488 9.4776,-6.293673 7.9565,-11.576978 -0.1545,-5.413661 -4.2926,-11.691869 -10.3968,-10.299811 -4.4728,0.654563 -6.9139,5.215338 -11.1033,6.465281 -3.1129,-2.167604 -2.6731,-5.589292 1.1799,-6.206394 4.297,-1.31052 9.4895,-3.8382 9.5669,-9.058343 0.1006,-5.698907 -5.2909,-9.672784 -9.9461,-11.868347 -5.3158,-2.102615 -10.8335,2.595586 -11.1799,7.920715 -0.366,3.316337 -1.4946,9.300887 -5.9367,5.488933 -1.4024,-3.545253 3.5877,-7.197636 3.794,-11.085577 1.2507,-5.806248 -4.5525,-10.427243 -10.0199,-9.846192 -5.3584,-0.788193 -12.2594,2.197256 -11.9485,8.450384 -0.1323,4.518495 3.9354,7.714843 4.4389,12.057365 -2.6754,2.688798 -5.9682,1.662269 -5.9072,-2.239563 -0.5444,-4.459388 -2.1316,-10.012376 -7.2594,-10.994826 -5.5948,-1.088812 -10.4447,3.530675 -13.4147,7.734343 -2.9941,4.869862 0.6743,11.119762 5.8587,12.38521 3.2026,0.935986 8.9,3.087451 4.3744,6.799873 -3.7353,0.764452 -6.4652,-4.783163 -10.2583,-5.661637 -5.5011,-2.240119 -11.0591,2.673016 -11.4366,8.158181 -1.7065,5.140025 0.035,12.454282 6.2475,13.233794 4.4268,0.915113 8.281,-2.535486 12.6449,-2.277523 2.1828,3.101953 0.6009,6.16621 -3.2313,5.428772 -4.4861,-0.238111 -10.2308,0.360431 -12.0884,5.24004 -2.0432,5.320807 1.6638,10.898637 5.2872,14.553981 4.276,3.794133 11.068,1.266794 13.2147,-3.618961 1.478,-2.991108 4.5856,-8.228841 7.4561,-3.12743 0.1044,3.81099 -5.8333,5.536387 -7.3569,9.119417 -3.1612,5.028289 0.7117,11.355049 6.0479,12.679239 4.7655,2.57279 12.2714,2.12839 14.1179,-3.85395 1.6698,-4.20073 -1.0596,-8.595686 -0.047,-12.848419 3.4338,-1.611956 6.1766,0.479321 4.7849,4.124899 -1.0135,4.3766 -1.4212,10.13776 3.0615,12.81448 1.5083,0.99984 3.329,1.44491 5.1285,1.28119 z m -4.6483,-27.520765 c -3.8141,-2.122643 -9.1133,-0.232703 -12.32,-0.638639 -1.3672,-4.227423 -7.9893,-5.198278 -8.5725,-8.50043 1.4115,-3.899075 -2.9751,-8.581787 -1.1976,-11.29127 3.5871,-2.079734 3.2372,-8.48604 6.3404,-9.419063 4.0846,0.712215 7.9346,-4.420089 10.9115,-3.14006 2.6711,3.171218 8.9193,1.714466 10.3769,4.608586 0.01,4.146367 5.7307,7.046348 4.9871,10.200389 -2.6593,3.181206 -0.139,9.081605 -2.7361,11.019488 -3.2077,1.532787 -6.0785,4.020143 -7.7897,7.160999 z"
         id="inner-flower"
         style="fill-opacity:1;stroke-width:0.264583" />
    </g>
  </g>
</svg>
