<?xml version="1.0" encoding="UTF-8" standalone="no"?>
<!-- Created with Inkscape (http://www.inkscape.org/) -->

<svg
   width="67.848289mm"
   height="67.848289mm"
   viewBox="0 0 67.84829 67.84829"
   version="1.1"
   id="svg1"
   xmlns="http://www.w3.org/2000/svg"
   xmlns:svg="http://www.w3.org/2000/svg">
  <defs
     id="defs1" />
  <g
     id="token"
     transform="matrix(0.30842431,0,0,0.30842431,-387.04464,1.539571)">
    <path
       style="fill:#000000;fill-opacity:1;stroke:#ffffff;stroke-width:4.78228;stroke-dasharray:none;stroke-opacity:1"
       id="background"
       d="m 189.80763,124.36876 -41.59531,-10e-6 L 118.8,94.956427 V 53.361118 l 29.41233,-29.412323 41.59531,3e-6 29.41232,29.412326 v 41.595308 z"
       transform="matrix(2.0910543,0,0,2.0910543,1011.4924,-50.069958)" />
    <g
       id="icon"
       transform="translate(1259.9014,-3.3228371)"
       style="stroke:none;fill:#ffffff;fill-opacity:1">
      <path
         d="m 47.457031,82.599609 c -18.624295,0 -33.773437,15.361204 -33.773437,34.109371 0,18.74818 15.149142,34.11133 33.773437,34.11133 18.624295,0 33.771485,-15.36315 33.771485,-34.11133 0,-18.748167 -15.14719,-34.109371 -33.771485,-34.109371 z m 0,10 c 13.156239,0 23.771485,10.702691 23.771485,24.109371 0,13.40669 -10.615246,24.11133 -23.771485,24.11133 -13.156239,0 -23.773437,-10.70464 -23.773437,-24.11133 0,-13.40668 10.617198,-24.109371 23.773437,-24.109371 z"
         id="ring-4"
         style="fill-opacity:1" />
      <path
         d="m 105,82.599609 c -18.624295,0 -33.771484,15.361204 -33.771484,34.109371 0,18.74818 15.147189,34.11133 33.771484,34.11133 18.62429,0 33.77148,-15.36315 33.77148,-34.11133 0,-18.748167 -15.14719,-34.109371 -33.77148,-34.109371 z m 0,10 c 13.15624,0 23.77148,10.702691 23.77148,24.109371 0,13.40669 -10.61524,24.11133 -23.77148,24.11133 -13.156239,0 -23.771484,-10.70464 -23.771484,-24.11133 0,-13.40668 10.615245,-24.109371 23.771484,-24.109371 z"
         id="ring-3"
         style="fill-opacity:1" />
      <path
         d="M 133.77148,53.488281 C 115.14719,53.488281 100,68.851438 100,87.599609 c 0,18.748171 15.14719,34.109371 33.77148,34.109371 18.6243,0 33.77149,-15.3612 33.77149,-34.109371 0,-18.748171 -15.14719,-34.111328 -33.77149,-34.111328 z m 0,10 c 13.15624,0 23.77149,10.704644 23.77149,24.111328 0,13.406681 -10.61525,24.109371 -23.77149,24.109371 C 120.61525,111.70898 110,101.00629 110,87.599609 110,74.192925 120.61525,63.488281 133.77148,63.488281 Z"
         id="ring-2"
         style="fill-opacity:1" />
      <path
         d="m 162.54297,82.599609 c -18.6243,0 -33.77149,15.361204 -33.77149,34.109371 0,18.74818 15.14719,34.11133 33.77149,34.11133 18.62429,0 33.77344,-15.36315 33.77344,-34.11133 0,-18.748167 -15.14915,-34.109371 -33.77344,-34.109371 z m 0,10 c 13.15624,0 23.77344,10.702691 23.77344,24.109371 0,13.40669 -10.6172,24.11133 -23.77344,24.11133 -13.15624,0 -23.77149,-10.70464 -23.77149,-24.11133 0,-13.40668 10.61525,-24.109371 23.77149,-24.109371 z"
         id="ring-1"
         style="fill-opacity:1" />
      <path
         d="m 76.228516,53.488281 c -18.624295,0 -33.771485,15.363157 -33.771485,34.111328 0,18.748171 15.14719,34.109371 33.771485,34.109371 C 94.852811,121.70898 110,106.34778 110,87.599609 110,68.851438 94.852811,53.488281 76.228516,53.488281 Z m 0,10 C 89.384755,63.488281 100,74.192925 100,87.599609 c 0,13.406681 -10.615245,24.109371 -23.771484,24.109371 -13.156239,0 -23.771485,-10.70269 -23.771485,-24.109371 0,-13.406684 10.615246,-24.111328 23.771485,-24.111328 z"
         id="ring-0"
         style="fill-opacity:1" />
    </g>
  </g>
</svg>
