<?xml version="1.0" encoding="UTF-8" standalone="no"?>
<!-- Created with Inkscape (http://www.inkscape.org/) -->

<svg
   width="67.848289mm"
   height="67.848289mm"
   viewBox="0 0 67.84829 67.84829"
   version="1.1"
   id="svg1"
   xmlns="http://www.w3.org/2000/svg"
   xmlns:svg="http://www.w3.org/2000/svg">
  <defs
     id="defs1" />
  <g
     id="token"
     transform="matrix(0.30842431,0,0,0.30842431,-516.57273,1.539564)">
    <path
       style="fill:#000000;fill-opacity:1;stroke:#ffffff;stroke-width:3.08425;stroke-dasharray:none;stroke-opacity:1"
       id="background"
       d="m 47.337225,66.306173 -26.82615,-1e-5 L 1.5421286,47.337213 V 20.511073 L 20.511085,1.5421221 l 26.82614,2e-6 18.96895,18.9689489 v 26.82615 z"
       transform="matrix(3.2422866,0,0,3.2422866,1674.8768,-4.9917077)" />
    <g
       id="icon"
       style="display:inline;fill:#ffffff;fill-opacity:1;stroke:none">
      <path
         id="content"
         style="display:inline;fill-opacity:1"
         d="M 149.20321 26.339631 L 121.19083 54.351211 L 121.19083 93.965975 L 149.20321 121.97756 L 188.81717 121.97756 L 216.82955 93.965975 L 216.82955 54.351211 L 188.81717 26.339631 L 149.20321 26.339631 z M 166.6188 35.559839 L 171.40078 35.559839 L 171.40078 44.818508 L 179.77004 36.449248 L 179.77004 43.623815 L 169.00979 54.383262 L 158.24954 43.623815 L 158.24954 36.449248 L 166.6188 44.818508 L 166.6188 35.559839 z M 164.27349 62.722875 L 173.74689 62.722875 L 180.44551 69.422289 L 180.44551 78.895699 L 173.74689 85.594312 L 164.27349 85.594312 L 157.57407 78.895699 L 157.57407 69.422289 L 164.27349 62.722875 z M 131.30125 63.398345 L 138.47501 63.398345 L 149.23526 74.158593 L 138.47501 84.918841 L 131.30125 84.918841 L 139.67051 76.549581 L 130.41104 76.549581 L 130.41104 71.767605 L 139.67051 71.767605 L 131.30125 63.398345 z M 199.54537 63.398345 L 206.71913 63.398345 L 198.34987 71.767605 L 207.60934 71.767605 L 207.60934 76.549581 L 198.34987 76.549581 L 206.71913 84.918841 L 199.54537 84.918841 L 188.78512 74.158593 L 199.54537 63.398345 z M 169.00979 93.933924 L 179.77004 104.69417 L 179.77004 111.86794 L 171.40078 103.49868 L 171.40078 112.75815 L 166.6188 112.75815 L 166.6188 103.49868 L 158.24954 111.86794 L 158.24954 104.69417 L 169.00979 93.933924 z "
         transform="matrix(2.0910543,0,0,2.0910543,1431.4596,-50.069934)" />
    </g>
  </g>
</svg>
