<?xml version="1.0" encoding="UTF-8" standalone="no"?>
<!-- Created with Inkscape (http://www.inkscape.org/) -->

<svg
   width="67.848289mm"
   height="67.848289mm"
   viewBox="0 0 67.84829 67.84829"
   version="1.1"
   id="svg1"
   xmlns="http://www.w3.org/2000/svg"
   xmlns:svg="http://www.w3.org/2000/svg">
  <defs
     id="defs1" />
  <g
     id="token"
     transform="matrix(0.30842431,0,0,0.30842431,-64.284545,1.539593)">
    <path
       style="fill:#000000;fill-opacity:1;stroke:#ffffff;stroke-width:4.78228;stroke-dasharray:none;stroke-opacity:1"
       id="background"
       d="m 189.80763,124.36876 -41.59531,-10e-6 L 118.8,94.956427 V 53.361118 l 29.41233,-29.412323 41.59531,3e-6 29.41232,29.412326 v 41.595308 z"
       transform="matrix(2.0910543,0,0,2.0910543,-34.988329,-50.070028)" />
    <g
       id="icon"
       transform="translate(3.4371369)"
       style="stroke:none;fill:#ffffff;fill-opacity:1">
      <path
         d="m 314.96094,39.570312 c -39.15763,0.04954 -73.49253,26.330606 -83.76367,64.117188 l -0.35743,1.3125 0.35743,1.31055 c 10.27099,37.78674 44.60592,64.06955 83.76367,64.11914 h 0.006 0.006 c 39.21936,-0.0538 73.5901,-26.4202 83.80078,-64.28711 l 0.35351,-1.3125 -0.35937,-1.31055 C 388.42913,65.786957 354.09202,39.582488 314.96875,39.570312 h -0.004 z m 0.004,10 h 0.008 c 34.20068,0.0141 64.14017,22.566851 73.73242,55.279298 -9.48172,32.83252 -39.44754,55.52696 -73.73242,55.58008 C 280.73777,160.38633 250.7986,137.764 241.26367,105 250.79755,72.237887 280.73284,49.617074 314.96484,49.570312 Z"
         id="eyelid"
         transform="translate(-4.0990869e-6)"
         style="fill-opacity:1" />
      <circle
         style="fill-opacity:1"
         id="retina"
         cy="105"
         cx="314.98361"
         r="31.329695" />
    </g>
  </g>
</svg>
