<?xml version="1.0" encoding="UTF-8" standalone="no"?>
<!-- Created with Inkscape (http://www.inkscape.org/) -->

<svg
   width="67.848289mm"
   height="67.848289mm"
   viewBox="0 0 67.84829 67.84829"
   version="1.1"
   id="svg1"
   xmlns="http://www.w3.org/2000/svg"
   xmlns:svg="http://www.w3.org/2000/svg">
  <defs
     id="defs1" />
  <g
     id="token"
     transform="matrix(0.30842431,0,0,0.30842431,-192.75253,1.539583)">
    <path
       style="fill:#000000;fill-opacity:1;stroke:#ffffff;stroke-width:4.78228;stroke-dasharray:none;stroke-opacity:1"
       id="background"
       d="m 189.80763,124.36876 -41.59531,-10e-6 L 118.8,94.956427 V 53.361118 l 29.41233,-29.412323 41.59531,3e-6 29.41232,29.412326 v 41.595308 z"
       transform="matrix(2.0910543,0,0,2.0910543,381.5417,-50.069996)" />
    <g
       transform="matrix(-0.5756355,0,0,0.5756355,833.16388,52.124009)"
       id="icon"
       style="stroke:none;fill:#ffffff;fill-opacity:1">
      <path
         d="m 251.5111,37.40625 c 0.10156,7.996094 -6.14063,14.5625 -13.9375,14.667969 -7.80078,0.105469 -14.20703,-6.296875 -14.30469,-14.292969 -0.004,-0.125 -0.004,-0.25 0,-0.375 -0.10156,-8 6.14063,-14.566406 13.9375,-14.667969 7.80078,-0.105469 14.20703,6.292969 14.3086,14.292969 0,0.125 0,0.25 -0.004,0.375 z m 0,0"
         fill-opacity="1"
         fill-rule="nonzero"
         id="head"
         style="fill-opacity:1" />
      <path
         d="m 206.77282,79.898438 0.043,11.65625 38.8164,0.08984 V 74.59375 l 14.42188,25.121094 -25.48828,15.460936 v 42.08594 h 12.15625 l -0.043,-35.32813 25.80078,-15.28125 -0.0898,30.88282 47.57031,-0.13672 v -12.51563 l -35.14844,0.0898 0.0898,-29.839848 -23.98828,-40.363281 20.77344,0.04687 13.41797,22.585938 10.07031,-6.078125 -17.27734,-28.390625 -33.51172,0.09375 c -3.33984,9.550781 -10.14844,13.238281 -19.77344,12.15625 l -0.0469,24.488281 z m 0,0"
         fill-opacity="1"
         fill-rule="nonzero"
         id="body"
         style="fill-opacity:1" />
      <path
         id="stairs"
         style="fill-opacity:1"
         d="m 2.3620546,14.449154 v 7.270911 H 41.700066 v 39.448617 h 39.451528 v 40.158828 h 38.985816 v 39.80081 h 39.09643 v 20.20021 H 100.76093 V 121.28904 H 61.42583 V 81.718172 H 22.207157 V 41.91445 H -3.0925835 V 19.903792 Z"
         transform="translate(-1.5625243e-6)" />
      <path
         d="m 101.36719,29.777344 26.98047,4.746094 -7.92969,7.929687 70.39844,70.398435 -6.37891,6.37891 -70.39844,-70.402345 -7.92968,7.933594 z m 0,0"
         clip-rule="nonzero"
         id="arrow" />
    </g>
  </g>
</svg>
