<?xml version="1.0" encoding="UTF-8" standalone="no"?>
<!-- Created with Inkscape (http://www.inkscape.org/) -->

<svg
   width="67.848297mm"
   height="67.848289mm"
   viewBox="0 0 67.848298 67.84829"
   version="1.1"
   id="svg1"
   xmlns="http://www.w3.org/2000/svg"
   xmlns:svg="http://www.w3.org/2000/svg">
  <defs
     id="defs1" />
  <g
     id="token"
     transform="matrix(0.30842431,0,0,0.30842431,-584.12096,11.342947)">
    <path
       style="display:inline;fill:#000000;fill-opacity:1;stroke:#ffffff;stroke-width:4.78228;stroke-dasharray:none;stroke-opacity:1"
       id="background"
       d="m 189.80763,124.36876 -41.59531,-10e-6 L 118.8,94.956427 V 53.361118 l 29.41233,-29.412323 41.59531,3e-6 29.41232,29.412326 v 41.595308 z"
       transform="matrix(2.0910543,0,0,2.0910543,1650.4703,-81.855314)" />
    <g
       id="icon"
       style="stroke:none;fill:#ffffff;fill-opacity:1">
      <path
         id="ticket"
         style="fill-opacity:1;stroke-dasharray:none"
         d="M 1932.6938 32.782891 L 1932.6938 113.64745 L 2075.0659 113.64745 L 2075.0659 32.782891 L 1932.6938 32.782891 z M 1965.9758 43.824423 L 1976.3974 43.824423 L 1976.3974 102.60592 L 1959.9474 102.60592 L 1959.9474 58.335912 C 1955.5549 60.460386 1951.4789 61.651367 1947.7179 61.909749 L 1947.7179 54.158895 C 1956.3594 53.297622 1962.4446 49.853337 1965.9758 43.824423 z M 1985.7249 43.824423 L 1990.6509 43.824423 L 1993.1139 48.371725 L 1991.616 48.371725 L 1985.7249 43.824423 z M 1990.6844 49.938316 C 1995.7028 49.938316 1998.2124 53.177745 1998.2124 59.654529 L 1989.0491 59.654529 C 1989.0491 64.202057 1990.2025 66.475481 1992.5107 66.475481 C 1994.6696 66.475481 1995.7494 65.189149 1995.7494 62.616809 C 1995.7494 62.272299 1995.7386 61.876744 1995.7159 61.428881 L 1998.2476 62.169451 C 1997.9835 66.177249 1995.6173 68.181138 1991.1502 68.181138 C 1985.3625 68.181138 1982.4678 65.291743 1982.4678 59.515462 C 1982.4678 56.71345 1983.2378 54.417266 1984.7766 52.625814 C 1986.3154 50.834364 1988.2844 49.938316 1990.6844 49.938316 z M 2023.3968 49.938316 C 2028.4152 49.938316 2030.9232 53.177745 2030.9232 59.654529 L 2021.7599 59.654529 C 2021.7599 64.202057 2022.9133 66.475481 2025.2215 66.475481 C 2027.3804 66.475481 2028.4602 65.189149 2028.4602 62.616809 C 2028.4602 62.272299 2028.4494 61.876744 2028.4267 61.428881 L 2030.9584 62.169451 C 2030.6942 66.177249 2028.3281 68.181138 2023.861 68.181138 C 2018.0732 68.181138 2015.1802 65.291743 2015.1802 59.515462 C 2015.1802 56.71345 2015.9486 54.417266 2017.4874 52.625814 C 2019.0262 50.834364 2020.9968 49.938316 2023.3968 49.938316 z M 2007.2216 49.973501 L 2007.2216 52.831901 C 2008.2437 50.925613 2009.495 49.973501 2010.9764 49.973501 C 2012.9974 49.973501 2014.009 51.086614 2014.009 53.314444 C 2014.009 53.900111 2013.911 54.572147 2013.7158 55.330068 C 2013.6469 55.640127 2013.5384 56.10564 2013.3891 56.725758 L 2009.0814 56.725758 C 2009.2307 56.048222 2009.3637 55.549406 2009.4785 55.227863 C 2009.6393 54.757033 2009.7198 54.33177 2009.7198 53.952809 C 2009.7198 53.217855 2009.4555 52.850331 2008.9272 52.850331 C 2008.5253 52.850331 2008.1403 53.338606 2007.7728 54.314716 C 2007.4054 55.279344 2007.2216 56.301414 2007.2216 57.380878 L 2007.2216 67.784045 L 2000.9351 67.784045 L 2000.9351 50.420859 L 2002.1566 50.437614 C 2003.6035 50.437614 2005.2923 50.28356 2007.2216 49.973501 z M 1990.9609 51.643973 C 1989.8585 51.643973 1989.2389 53.142098 1989.1011 56.139334 L 1989.0307 57.7076 L 1992.7872 57.7076 C 1992.7872 53.665352 1992.1781 51.643973 1990.9609 51.643973 z M 2023.6716 51.643973 C 2022.5692 51.643973 2021.9496 53.142098 2021.8118 56.139334 L 2021.7431 57.7076 L 2025.4979 57.7076 C 2025.4979 53.665352 2024.8889 51.643973 2023.6716 51.643973 z M 1982.4695 70.714491 L 2030.9584 70.714491 L 2030.9584 75.714177 L 1982.4695 75.714177 L 1982.4695 70.714491 z M 2057.0995 79.716942 A 7.5620966 7.5620966 0 0 1 2064.661 87.28014 A 7.5620966 7.5620966 0 0 1 2057.0995 94.841663 A 7.5620966 7.5620966 0 0 1 2049.5363 87.28014 A 7.5620966 7.5620966 0 0 1 2057.0995 79.716942 z " />
    </g>
  </g>
</svg>
