<?xml version="1.0" encoding="UTF-8" standalone="no"?>
<!-- Created with Inkscape (http://www.inkscape.org/) -->

<svg
   width="67.848289mm"
   height="67.848289mm"
   viewBox="0 0 67.84829 67.84829"
   version="1.1"
   id="svg1"
   xmlns="http://www.w3.org/2000/svg"
   xmlns:svg="http://www.w3.org/2000/svg">
  <defs
     id="defs1" />
  <g
     id="token"
     transform="matrix(0.30842431,0,0,0.30842431,-753.53069,-16.303934)">
    <path
       style="fill:#000000;fill-opacity:1;stroke:#ffffff;stroke-width:4.78228;stroke-dasharray:none;stroke-opacity:1"
       id="background"
       d="m 189.80763,124.36876 -41.59531,-10e-6 L 118.8,94.956427 V 53.361118 l 29.41233,-29.412323 41.59531,3e-6 29.41232,29.412326 v 41.595308 z"
       transform="matrix(2.0910543,0,0,2.0910543,2199.7452,7.7837985)" />
    <g
       id="icon"
       style="stroke:none;fill:#ffffff;fill-opacity:1">
      <path
         id="dice"
         style="fill-opacity:1"
         d="m 2525.0409,103.98907 v 0 l -30.7514,30.75136 h 86.9782 v 86.97815 l 30.7514,-30.75136 v 0 -86.97815 z" />
      <path
         style="fill-opacity:1"
         d="m 83.611151,166.66251 c 2.953182,-2.95318 7.741237,-2.95318 10.694419,0 2.953182,2.95318 2.953182,7.74124 0,10.69442 -2.953182,2.95318 -7.741236,2.95318 -10.694419,0 -2.953183,-2.95318 -2.953183,-7.74124 0,-10.69442 z m -26.73605,-26.73605 c 2.953182,-2.95318 7.741237,-2.95318 10.694419,0 2.953182,2.95319 2.953183,7.74124 10e-7,10.69442 -2.953182,2.95319 -7.741237,2.95319 -10.69442,0 -2.953183,-2.95318 -2.953183,-7.74123 0,-10.69442 z m -26.73605,-26.73604 c 2.953183,-2.95319 7.741237,-2.95319 10.69442,0 2.953182,2.95318 2.953182,7.74123 0,10.69442 -2.953182,2.95318 -7.741237,2.95318 -10.694419,0 -2.953183,-2.95319 -2.953183,-7.74124 -1e-6,-10.69442 z"
         id="dots"
         transform="translate(2476.2677,33.667231)" />
    </g>
  </g>
</svg>
