<?xml version="1.0" encoding="UTF-8" standalone="no"?>
<!-- Created with Inkscape (http://www.inkscape.org/) -->

<svg
   width="67.848289mm"
   height="67.848289mm"
   viewBox="0 0 67.84829 67.84829"
   version="1.1"
   id="svg1"
   xmlns="http://www.w3.org/2000/svg"
   xmlns:svg="http://www.w3.org/2000/svg">
  <defs
     id="defs1" />
  <path
     style="display:inline;fill:#000000;fill-opacity:1;stroke:#ffffff;stroke-width:4.78228;stroke-dasharray:none;stroke-opacity:1"
     id="background"
     d="m 189.80763,124.36876 -41.59531,-10e-6 L 118.8,94.956427 V 53.361118 l 29.41233,-29.412323 41.59531,3e-6 29.41232,29.412326 v 41.595308 z"
     transform="matrix(0.64493201,0,0,0.64493201,-75.075804,-13.903222)" />
  <g
     id="token"
     transform="matrix(0.08160383,0,0,0.08160383,-799.87636,-52.796795)">
    <g
       id="icon"
       transform="translate(393.22737,132.88656)"
       style="stroke:none;fill:#ffffff;fill-opacity:1">
      <path
         id="tgv"
         style="fill-opacity:1;fill-rule:evenodd"
         d="M 9726.5204 796.15024 C 9715.4806 796.03834 9704.2121 796.60925 9684.9088 797.80305 C 9686.6074 797.82805 9688.5107 797.94425 9690.5575 798.09435 C 9686.3767 797.91555 9682.5631 798.038 9679.0512 798.259 L 9676.4548 798.29699 L 9676.1255 798.5123 C 9669.1641 799.1312 9664.2962 800.10178 9664.2962 800.10178 C 9664.2962 800.10178 9566.4683 816.28401 9533.6104 819.96081 L 9446.5118 831.39749 L 9446.5118 901.04341 L 9533.2874 900.91676 L 9696.4532 900.91676 L 9803.1258 953.06571 L 9696.4532 942.10398 L 9533.2874 932.90905 L 9446.5118 926.3738 L 9446.5118 943.47182 L 9534.288 956.69429 L 9751.0085 981.18878 L 9855.3507 1001.1491 L 9961.8524 1052.5445 L 9795.628 1032.7678 L 9534.0093 978.9977 L 9446.5118 961.00046 L 9446.5118 969.46081 L 9533.8764 988.90189 L 9782.5892 1040.9115 C 9782.5892 1040.9115 10049.259 1085.6371 10105.761 1049.2326 L 10115.266 1004.5054 L 10114.702 1004.4484 C 10114.702 1004.1688 10114.721 1003.8904 10114.601 1003.5935 C 10111.828 996.8323 10068.795 934.8148 9961.5991 881.2477 C 9960.8521 880.8115 9947.0501 868.47186 9906.4168 831.06186 C 9906.4168 831.06186 9859.6832 800.63799 9789.4537 798.29699 C 9754.3384 797.12709 9739.3589 796.28034 9726.5204 796.15024 z M 9676.4548 798.29699 C 9680.1723 798.06019 9681.7637 797.99755 9684.9088 797.80305 C 9681.1479 797.74805 9678.1295 797.92649 9676.4548 798.29699 z M 9786.2368 836.44457 L 9856.2816 836.44457 L 9891.3389 871.79313 L 9816.8105 871.79313 L 9786.2368 836.44457 z M 9880.3328 837.17915 L 9910.9256 839.75018 L 9943.6082 870.32397 L 9913.484 869.95668 L 9880.3328 837.17915 z M 9761.5016 838.15437 L 9792.601 873.76891 L 9766.7007 874.0982 L 9755.0297 838.28102 L 9761.5016 838.15437 z M 10049.255 949.86141 C 10055.191 949.86141 10062.632 952.33944 10065.935 955.42144 L 10080.633 967.72568 C 10083.936 970.80898 10081.821 973.29203 10075.884 973.29203 L 10071.9 974.02661 C 10065.963 974.02661 10058.531 971.54849 10055.227 968.46659 L 10041.643 955.78873 C 10038.34 952.70673 10040.462 950.2287 10046.399 950.2287 L 10049.255 949.86141 z M 9951.3086 955.64308 L 9976.9746 955.64308 C 9994.0144 955.64308 10013.854 961.05315 10021.461 967.77634 C 10029.068 974.49946 10021.473 979.9096 10004.433 979.9096 L 9978.7668 979.9096 C 9961.727 979.9096 9941.8871 974.49946 9934.2803 967.77634 C 9926.6733 961.05315 9934.2688 955.64308 9951.3086 955.64308 z "
         transform="translate(5.7764933e-5)" />
    </g>
  </g>
</svg>
