<?xml version="1.0" encoding="UTF-8" standalone="no"?>
<!-- Created with Inkscape (http://www.inkscape.org/) -->

<svg
   width="67.848289mm"
   height="67.848289mm"
   viewBox="0 0 67.84829 67.84829"
   version="1.1"
   id="svg1"
   xmlns="http://www.w3.org/2000/svg"
   xmlns:svg="http://www.w3.org/2000/svg">
  <defs
     id="defs1" />
  <g
     id="token"
     transform="translate(-71.075854,-71.075854)">
    <path
       style="fill:#000000;fill-opacity:1;stroke:#ffffff;stroke-width:4.78228;stroke-dasharray:none;stroke-opacity:1"
       id="background"
       d="m 189.80763,124.36876 -41.59531,-10e-6 L 118.8,94.956427 l 0,-41.595309 29.41233,-29.412323 41.59531,3e-6 29.41232,29.412326 0,41.595308 z"
       transform="matrix(0.64493199,0,0,0.64493199,-3.9999445,57.172631)" />
    <g
       id="icon"
       style="fill:#ffffff;fill-opacity:1;stroke:none">
      <path
         id="l-marker"
         d="M 112.53135,86.817715 C 110.30695,85.560957 107.73728,84.843751 105,84.84375 c -8.468069,0 -15.332031,6.863964 -15.332031,15.33203 10e-7,5.00059 5.346546,12.80638 9.72512,18.3605 z m -9.94914,24.019345 C 97.710138,109.7365 94.072202,105.38061 94.072266,100.17578 94.072191,94.140088 98.964307,89.247971 105,89.248047 c 2.1427,-2.6e-5 4.14128,0.616503 5.82802,1.681873 z"
         style="fill-opacity:1"
         transform="translate(-0.99601894,-2.885644)" />
      <path
         id="r-marker"
         style="fill-opacity:1"
         d="M 99.393089,118.53628 C 102.42926,122.38759 105,125.15625 105,125.15625 c 0,0 15.33203,-16.5124 15.33203,-24.98047 0,-5.730787 -3.14366,-10.726905 -7.80068,-13.358065 z M 110.82802,90.92992 c 3.06457,1.935629 5.09976,5.352871 5.09971,9.24586 7e-5,6.03569 -4.89204,10.92976 -10.92773,10.92969 -0.83086,1e-5 -1.64005,-0.0927 -2.41779,-0.26841 z"
         transform="translate(0.71055232,4.1165063)" />
      <path
         style="fill-opacity:1"
         d="m 88.671951,117.33151 -3.710611,-14.97677 -3.654076,4.96954 -3.215586,-12.570018 1.607793,18.562698 4.531054,-6.285 z"
         id="l-lightning" />
      <path
         style="fill-opacity:1"
         d="m 98.266165,90.564079 5.459935,14.431271 3.03918,-5.367695 4.68309,12.100175 -3.79707,-18.241199 -3.75401,6.777849 z"
         id="c-lightning" />
      <path
         style="fill-opacity:1"
         d="m 124.48413,119.52175 8.05849,-13.15802 -6.10416,0.88757 6.69238,-11.115642 -12.08826,14.178612 7.65659,-1.18678 z"
         id="r-lightning" />
    </g>
  </g>
</svg>
