<?xml version="1.0" encoding="UTF-8" standalone="no"?>
<!-- Created with Inkscape (http://www.inkscape.org/) -->

<svg
   width="67.848289mm"
   height="67.848289mm"
   viewBox="0 0 67.84829 67.84829"
   version="1.1"
   id="svg1"
   xmlns="http://www.w3.org/2000/svg"
   xmlns:svg="http://www.w3.org/2000/svg">
  <defs
     id="defs1" />
  <g
     id="token"
     transform="matrix(0.30842431,0,0,0.30842431,-451.80869,1.539567)">
    <path
       style="display:inline;fill:#000000;fill-opacity:1;stroke:#ffffff;stroke-width:4.78228;stroke-dasharray:none;stroke-opacity:1"
       id="background"
       d="m 189.80763,124.36876 -41.59531,-10e-6 L 118.8,94.956427 V 53.361118 l 29.41233,-29.412323 41.59531,3e-6 29.41232,29.412326 v 41.595308 z"
       transform="matrix(2.0910543,0,0,2.0910543,1221.476,-50.069946)" />
    <g
       id="icon"
       transform="translate(1469.885,8.5528903e-5)"
       style="stroke:none;fill:#ffffff;fill-opacity:1">
      <path
         id="head"
         style="fill-opacity:1"
         d="M 116.00908 19.192891 C 109.4329 19.39785 103.14022 22.103409 98.428075 26.412612 C 95.478384 29.110069 89.33024 31.193355 85.178236 37.437389 C 83.476234 39.996964 83.405527 42.60071 83.534573 44.8766 C 83.66362 47.15249 84.109015 49.320384 84.534845 51.369155 C 85.386505 55.466696 85.475315 59.414897 85.602137 59.08985 C 85.227987 60.048802 84.869107 60.989658 84.523116 61.924792 A 6.8957582 6.8957582 0 0 1 90.181273 58.949108 A 6.8957582 6.8957582 0 0 1 97.075948 65.845458 A 6.8957582 6.8957582 0 0 1 90.181273 72.741808 A 6.8957582 6.8957582 0 0 1 83.284923 65.845458 A 6.8957582 6.8957582 0 0 1 83.303354 65.590782 C 82.100584 69.737127 81.613486 73.993401 82.981658 79.212581 C 84.180404 83.785444 84.898296 89.105165 85.533442 94.359083 C 86.099143 99.038542 86.558975 106.27377 92.706249 110.722 C 94.938689 112.33741 97.527443 112.64084 99.676321 112.46451 C 101.8252 112.28819 103.75566 111.6833 105.58078 110.95657 C 109.23102 109.50311 112.50099 107.45925 114.54637 106.17972 C 127.06538 98.348207 130.63525 94.077686 136.88913 84.957864 C 137.72966 83.732152 138.18112 83.457905 138.55793 83.126544 C 143.77514 91.410675 157.81849 87.162934 157.93171 77.034433 C 157.96071 74.443239 156.98294 71.925335 155.61785 70.253693 C 154.25275 68.582052 152.73272 67.654218 151.56817 66.961339 C 150.55792 66.360268 149.9382 65.987976 149.5626 65.729848 C 149.5716 65.293941 149.7003 64.534288 150.57292 62.782647 C 151.55591 60.809451 153.18211 58.167002 153.63406 54.478879 C 154.48612 47.525586 150.98772 42.333735 148.78517 38.50133 C 145.8402 33.377123 141.80528 29.054492 136.53393 26.015519 C 130.9434 22.792527 124.167 18.938634 116.00908 19.192891 z M 111.2004 60.08342 A 7.5620966 7.5620966 0 0 1 118.76192 67.644943 A 7.5620966 7.5620966 0 0 1 111.2004 75.206465 A 7.5620966 7.5620966 0 0 1 103.6372 67.644943 A 7.5620966 7.5620966 0 0 1 111.2004 60.08342 z "
         transform="translate(-18.098438,5.1046879)" />
      <path
         id="flap"
         style="fill-opacity:1"
         d="M 111.43191 140.17 C 102.40774 143.43511 85.105025 146.48127 78.367628 146.37269 L 77.891787 146.36431 L 77.424323 146.44641 C 77.013194 146.51851 75.273658 146.26839 72.766438 146.02586 C 70.259218 145.78333 66.133492 146.02784 63.231179 149.01998 L 62.237609 150.04203 L 61.934344 151.43604 C 60.113016 159.78811 61.207507 170.51887 62.708424 181.12252 C 63.994344 190.20727 65.665303 198.9342 66.654222 204.99166 L 76.784283 204.99166 C 75.78527 198.47939 73.954032 189.21273 72.610617 179.7218 C 71.340268 170.74706 70.758432 161.79404 71.427715 155.97999 C 71.619511 155.99909 71.394597 155.94049 71.803027 155.97999 C 73.235956 156.1186 75.521592 156.78867 78.598847 156.37039 C 88.126888 156.43749 104.2429 153.40632 114.83317 149.57457 L 111.43191 140.17 z " />
      <path
         id="l-arm"
         style="fill-opacity:1"
         d="M 134.37953 98.810326 L 126.83811 105.3766 C 128.89614 107.73941 129.14014 109.8927 129.11344 113.19113 C 129.10844 113.78148 129.11563 114.88637 129.18883 116.11152 C 129.22553 116.7245 129.27694 117.35599 129.37314 118.02159 C 129.46934 118.6872 129.44281 119.24663 130.10533 120.57169 L 130.57447 121.5083 L 131.37703 122.1785 C 141.46868 130.58951 153.20529 142.3988 159.35283 150.57651 C 162.71038 155.04287 166.84253 160.22539 170.36252 165.16172 C 172.9211 168.74978 175.11794 172.29447 176.43285 174.97679 L 183.87541 167.53423 C 182.33373 164.84008 180.48059 162.12601 178.50544 159.35612 C 174.76261 154.10728 170.5618 148.84737 167.34495 144.56818 C 160.64752 135.65896 149.48993 124.47905 139.19156 115.73453 C 139.18556 115.64823 139.17675 115.60303 139.17145 115.51337 C 139.11905 114.63887 139.10981 113.62515 139.11281 113.27323 L 139.11281 113.27155 C 139.14651 109.10988 138.48873 103.52806 134.37953 98.810326 z " />
      <path
         id="r-arm"
         style="fill-opacity:1"
         d="M 60.924018 105.63463 C 60.587617 106.12106 60.694861 105.98498 60.555409 106.20765 C 60.415958 106.43032 60.232879 106.72438 60.014223 107.07556 C 59.576912 107.77793 59.002449 108.7007 58.405745 109.6575 C 55.814752 113.81212 55.559332 118.33535 55.79867 122.17347 C 56.038008 126.01158 56.684241 129.45535 56.720194 132.32029 L 56.720194 132.25829 C 56.720194 132.60248 56.742359 132.68809 56.755379 132.8665 C 55.700094 132.97612 54.603491 133.10192 53.560205 133.27867 C 52.445532 133.46751 51.825336 133.1546 49.666347 134.59394 L 49.267579 134.85867 L 48.927452 135.19544 C 39.918943 144.08649 29.066438 151.01709 19.060025 160.47033 L 26.139004 167.54931 C 34.955928 159.31758 45.2998 152.49538 54.898927 143.26129 C 55.029111 143.21209 55.090877 143.16263 55.230676 143.13898 C 55.944562 143.01804 56.973206 142.89262 57.990221 142.7888 C 59.007237 142.68499 60.017131 142.59797 60.835217 142.52072 C 61.244261 142.48212 61.596511 142.45009 61.949423 142.40511 C 62.125879 142.38261 62.290482 142.36066 62.566006 142.30626 C 62.703768 142.27906 62.861713 142.24902 63.16751 142.15378 C 63.473307 142.05848 63.835107 142.31888 65.255181 140.89884 C 66.686747 139.46727 66.63089 138.63275 66.7514 138.05887 C 66.87191 137.485 66.89645 137.08588 66.915599 136.70171 C 66.953899 135.93337 66.926682 135.26009 66.892142 134.60567 C 66.857602 133.95125 66.80936 133.33524 66.771506 132.8598 C 66.737172 132.42864 66.723518 131.93937 66.721242 132.19462 C 66.670052 128.11544 65.963308 124.49601 65.779612 121.55019 C 65.595916 118.60438 65.845919 116.62363 66.890467 114.94872 C 67.491978 113.9842 68.068182 113.05898 68.502296 112.36175 C 68.719353 112.01313 68.902386 111.72052 69.031753 111.51395 C 69.16112 111.30739 69.440315 110.90177 69.149038 111.32295 L 60.924018 105.63463 z " />
      <path
         style="fill-opacity:1"
         d="m 102.04883,112.35938 c -2.00854,0.22264 -3.466109,1.3396 -4.519533,2.25585 -1.842337,1.60245 -3.27152,3.59011 -4.621094,5.68165 v -1.1211 l -1.554687,-1.47851 c -1.860538,-1.76958 -3.356691,-1.72614 -4.5,-1.80469 -1.14331,-0.0785 -2.130842,0.009 -3.080079,0.13672 -1.898472,0.25567 -2.957062,0.30511 -5.023437,1.35937 l -1.240234,0.63281 -0.736329,1.1836 c -4.334105,6.98029 -13.491276,11.50807 -17.533203,13.8164 l 4.958985,8.6836 c 2.238335,-1.27831 11.98591,-5.62431 18.708984,-13.96289 v 9.2539 c 0,0.42653 1.41e-4,0.89685 0.199219,1.66407 0.199077,0.76721 0.642957,2.20876 2.435547,3.2539 1.79259,1.04515 3.972119,0.61377 4.896484,0.16211 0.924366,-0.45166 1.291216,-0.8508 1.607422,-1.16992 1.264823,-1.27647 1.617217,-2.09926 2.333984,-3.31641 1.433535,-2.43429 3.196692,-5.76826 5.023438,-8.8457 1.006283,-1.69524 1.676323,-2.39621 2.582033,-3.62695 3.63428,7.88568 8.68015,11.8804 9.88867,12.76758 1.39872,1.0268 3.20488,1.84938 5.2168,1.83984 2.01191,-0.01 3.807,-0.90351 4.99023,-1.85156 2.36646,-1.89611 3.39418,-3.96181 4.66016,-5.9668 2.53196,-4.00997 4.95714,-7.55742 9.19922,-8.75977 l -2.72657,-9.62109 c -8.20993,2.32697 -12.35404,8.96382 -14.92968,13.04297 -0.87758,1.38985 -1.23848,1.81286 -1.67383,2.38672 -2.0149,-1.48539 -4.57985,-3.82348 -6.85156,-10.88086 -0.70319,-2.18454 -2.32348,-4.93875 -5.51368,-5.59961 -0.79755,-0.16522 -1.52775,-0.18945 -2.19726,-0.11523 z"
         id="collar" />
    </g>
  </g>
</svg>
