<?xml version="1.0" encoding="UTF-8" standalone="no"?>
<!-- Created with Inkscape (http://www.inkscape.org/) -->

<svg
   width="67.848289mm"
   height="67.848289mm"
   viewBox="0 0 67.84829 67.84829"
   version="1.1"
   id="svg1"
   xmlns="http://www.w3.org/2000/svg"
   xmlns:svg="http://www.w3.org/2000/svg">
  <defs
     id="defs1" />
  <g
     id="token"
     transform="matrix(0.30842431,0,0,0.30842431,-127.98849,1.539586)">
    <path
       style="display:inline;fill:#000000;fill-opacity:1;stroke:#ffffff;stroke-width:4.78228;stroke-dasharray:none;stroke-opacity:1"
       id="background"
       d="m 189.80763,124.36876 -41.59531,-10e-6 L 118.8,94.956427 V 53.361118 l 29.41233,-29.412323 41.59531,3e-6 29.41232,29.412326 v 41.595308 z"
       transform="matrix(2.0910543,0,0,2.0910543,171.55812,-50.070009)" />
    <g
       id="icon"
       style="display:inline;fill:#ffffff;fill-opacity:1;stroke:none"
       transform="translate(-4.1204058e-6)">
      <path
         id="A"
         style="fill-opacity:1"
         d="M 489.9405 25.120272 L 486.11031 31.748542 L 456.40206 81.785615 C 452.5719 88.267408 450.32798 92.097672 449.67326 93.27618 C 449.05127 94.421952 448.74168 95.208033 448.74168 95.633606 C 448.74168 96.615695 449.29744 97.106369 450.41047 97.106369 C 450.96699 97.106369 451.42596 96.877723 451.78606 96.419415 C 452.17889 95.993843 452.84898 94.880645 453.79833 93.080147 L 457.04042 87.090242 L 459.49503 87.138831 L 474.02997 87.18742 L 490.5286 87.18742 L 495.19319 96.173116 L 529.22255 96.173116 L 489.9405 25.120272 z M 474.66834 57.283132 L 488.71236 83.750974 L 473.93112 83.898418 L 459.20014 83.700709 L 466.07471 71.769488 L 474.66834 57.283132 z "
         transform="translate(-4.1204058e-6)" />
      <path
         style="fill-opacity:1"
         d="M 563.4982,50.653925 Q 563.4,52.912732 563.4,56.153628 v 2.94627 l 0.34373,33.8821 16.64642,-0.196418 11.78508,-0.147314 q 2.89716,0 2.89716,1.767762 0,1.473135 -1.47313,1.669553 -0.34373,0.0491 -4.07567,0.09821 h -55.78271 l 0.0491,-2.553434 0.0491,-16.4009 0.19642,-17.579409 -0.39284,-30.49389 h 52.05077 q 3.48642,0 3.97746,0.147313 1.1294,0.294627 1.1294,1.669553 0,1.718657 -2.16059,1.718657 h -0.34374 l -24.60135,-0.343731 -0.19641,15.222393 5.35238,0.0491 17.18658,-0.294627 3.78104,-0.0491 q 2.06239,0 2.70075,0.343731 0.68746,0.343732 0.68746,1.374926 0,1.915075 -3.24089,1.915075 l -3.87926,-0.09821 z"
         transform="translate(-4.1204058e-6)"
         id="E" />
      <path
         id="O"
         style="fill-opacity:1"
         d="M 464.01217 95.821262 C 458.64341 95.853998 453.61901 96.967195 448.93771 99.160529 C 441.8994 102.4669 436.54621 107.4596 432.87974 114.13781 C 429.90073 119.57204 428.41119 125.28405 428.41119 131.2748 C 428.41119 136.05431 429.36083 140.68651 431.25953 145.17138 C 434.33675 152.50432 439.493 158.20048 446.72773 162.25979 C 452.16196 165.337 457.92321 166.87578 464.01217 166.87578 C 469.77377 166.87578 475.27299 165.51808 480.5108 162.80097 C 487.64732 159.10176 492.90204 153.68348 496.27388 146.54696 C 498.53269 141.76746 499.66174 136.824 499.66174 131.71713 C 499.66174 125.36628 498.17219 119.49071 495.19319 114.08922 C 491.46125 107.34553 486.06049 102.35283 478.98944 99.11194 C 474.1772 96.918606 469.18451 95.821262 464.01217 95.821262 z M 463.6201 98.817052 C 468.69423 98.817052 473.5217 99.898542 478.10478 102.05914 C 484.22648 104.9072 488.97467 109.34247 492.34652 115.36595 C 495.09636 120.2764 496.46992 125.57868 496.46992 131.2748 C 496.46992 135.59599 495.65212 139.7709 494.01531 143.79747 C 491.69103 149.55907 487.92585 154.27221 482.72078 157.93868 C 477.02466 161.93251 470.55995 163.93026 463.32521 163.93026 C 462.31039 163.93026 461.24642 163.83179 460.13339 163.63537 L 460.0848 157.64379 L 459.8385 131.07877 L 460.13339 99.11194 C 461.27916 98.915522 462.44159 98.817052 463.6201 98.817052 z "
         transform="translate(-4.1204058e-6)" />
      <path
         style="fill-opacity:1"
         d="m 537.71834,97.835351 v 3.437319 l -0.24552,26.90926 0.19641,36.68105 h -30.00284 l 0.34373,-40.11837 -0.34373,-24.50314 0.0491,-2.406119 z"
         transform="translate(-4.1204058e-6)"
         id="I" />
      <path
         style="fill-opacity:1"
         d="m 579.16253,97.835351 -0.24552,25.436129 -0.0982,26.71284 0.14731,13.60195 q 2.50433,0.19641 4.3703,0.19641 17.23568,0 23.07911,-8.00403 2.99538,-4.12477 3.92836,-11.68687 0.98209,-7.61119 0.98209,-27.59672 l -0.14731,-13.01269 -0.19642,-4.026571 q 0,-2.553434 2.11149,-2.553434 1.86598,0 1.86598,2.455225 0,1.42403 -0.14732,3.87925 l -0.39283,19.5927 q -0.19642,12.37433 -0.44194,16.84284 -0.24553,4.4194 -0.98209,8.29866 -1.52224,8.00403 -7.02195,12.76717 -7.02194,6.13806 -24.0612,6.13806 -14.92776,0 -22.53896,-4.02657 -5.99075,-3.09358 -8.49508,-10.45926 -1.1294,-3.38821 -1.32582,-6.97284 -0.19642,-3.58462 -0.24552,-21.85149 l -0.19642,-25.730759 z"
         transform="translate(-4.1204058e-6)"
         id="U" />
    </g>
  </g>
</svg>
