<?xml version="1.0" encoding="UTF-8" standalone="no"?>
<!-- Created with Inkscape (http://www.inkscape.org/) -->

<svg
   width="67.848289mm"
   height="67.848289mm"
   viewBox="0 0 67.84829 67.84829"
   version="1.1"
   id="svg1"
   xmlns="http://www.w3.org/2000/svg"
   xmlns:svg="http://www.w3.org/2000/svg">
  <defs
     id="defs1" />
  <g
     id="token"
     transform="translate(-71.075895,-71.075855)">
    <path
       style="fill:#000000;fill-opacity:1;stroke:#ffffff;stroke-width:4.78228;stroke-dasharray:none;stroke-opacity:1"
       id="background"
       d="m 189.80763,124.36876 -41.59531,-10e-6 L 118.8,94.956427 l 0,-41.595309 29.41233,-29.412323 41.59531,3e-6 29.41232,29.412326 0,41.595308 z"
       transform="matrix(0.64493198,0,0,0.64493198,-3.999901,57.172633)" />
    <g
       id="icon"
       style="fill:#ffffff;fill-opacity:1;stroke:none">
      <path
         id="bg-sign"
         style="fill-opacity:1"
         d="m 1442.2351,218.91672 v 18.76222 h 36.6382 v 28.76495 h 0.01 4.2977 l 11.2995,-18.32827 4.0782,2.00725 c 8.4724,4.17043 15.2407,10.00941 20.7812,16.32102 h 6.1893 v -47.52717 z"
         transform="matrix(0.30842432,0,0,0.30842432,-347.5523,16.238012)" />
      <path
         id="fg-sign"
         d="M 1388.6326 247.67999 L 1388.6326 301.99461 L 1423.5902 301.99461 L 1423.5902 337.20352 L 1433.5896 331.35603 L 1433.5896 301.99461 L 1457.9245 301.99461 L 1466.5081 291.30158 L 1468.8722 287.86011 L 1468.8722 247.67999 L 1388.6326 247.67999 z "
         transform="matrix(0.30842432,0,0,0.30842432,-347.5523,16.238012)"
         style="fill-opacity:1" />
      <path
         id="speaker"
         d="M 1471.543 301.00774 L 1441.6772 338.2105 L 1423.4176 348.88845 C 1422.4608 349.57686 1422.01 350.48302 1421.97 352.40196 C 1421.9293 354.34865 1422.6152 357.0106 1423.8315 359.28659 C 1425.0479 361.56257 1426.8005 363.39915 1428.0822 364.12542 C 1429.3639 364.85169 1429.5578 364.89823 1430.5452 364.26449 L 1436.3206 360.55661 L 1439.99 374.4046 L 1449.1566 371.08712 L 1444.3831 354.85489 L 1450.3412 353.39386 L 1494.8676 345.55923 C 1493.6789 326.88151 1487.4752 311.84819 1471.543 301.00774 z "
         transform="matrix(0.30842432,0,0,0.30842432,-347.5523,16.238012)"
         style="fill-opacity:1" />
      <path
         id="l-wave"
         d="M 1485.4178 281.42955 L 1477.8127 292.50626 C 1483.2639 295.37268 1487.1909 297.74235 1489.6635 300.42467 C 1492.907 303.94336 1493.8739 307.22179 1496.6302 312.29557 C 1501.8213 321.85175 1505.487 332.98407 1505.9929 344.58409 L 1514.749 342.81141 C 1514.7884 336.99634 1514.1838 329.70102 1513.0719 322.78586 C 1512.0896 319.25366 1510.6508 315.68746 1508.5815 311.87837 C 1501.8137 299.41991 1499.8479 289.82903 1485.4178 281.42955 z "
         transform="matrix(0.30842432,0,0,0.30842432,-347.5523,16.238012)"
         style="fill-opacity:1" />
      <path
         id="r-wave"
         style="display:inline;fill-opacity:1"
         d="M 1498.0443 261.38891 L 1490.9234 272.93812 C 1505.87 281.29281 1511.3182 289.59586 1516.6373 299.38753 C 1522.6026 310.36851 1524.761 327.68623 1524.668 341.08398 L 1534.6958 339.52744 C 1535.1967 326.37588 1533.9949 308.92246 1528.5903 298.97201 C 1522.1414 287.10064 1513.2031 270.69227 1498.0443 261.38891 z "
         transform="matrix(0.30842432,0,0,0.30842432,-347.5523,16.238012)" />
    </g>
  </g>
</svg>
