<?xml version="1.0" encoding="UTF-8" standalone="no"?>
<!-- Created with Inkscape (http://www.inkscape.org/) -->

<svg
   width="67.848289mm"
   height="67.848289mm"
   viewBox="0 0 67.84829 67.84829"
   version="1.1"
   id="svg1"
   xmlns="http://www.w3.org/2000/svg"
   xmlns:svg="http://www.w3.org/2000/svg">
  <defs
     id="defs1" />
  <g
     transform="matrix(0.08160383,0,0,0.08160383,-1613.393,53.567566)"
     id="token">
    <path
       style="fill:#000000;fill-opacity:1;stroke:#ffffff;stroke-width:4.78228;stroke-dasharray:none;stroke-opacity:1"
       id="background"
       d="m 189.80763,124.36876 -41.59531,-10e-6 L 118.8,94.956427 V 53.361118 l 29.41233,-29.412323 41.59531,3e-6 29.41232,29.412326 v 41.595308 z"
       transform="matrix(7.9032076,0,0,7.9032076,18851.042,-826.80909)" />
    <g
       id="icon"
       transform="translate(2.2976867e-5)"
       style="stroke:none;stroke-opacity:1;stroke-width:1.0048548;stroke-dasharray:none;fill:#ffffff;fill-opacity:1">
      <path
         d="m 20186.688,-439.82079 c 26.623,0.004 48.189,-21.56609 48.338,-48.18901 -0.07,-26.62292 -21.715,-48.18897 -48.338,-48.18897 -26.623,-0.0373 -48.189,21.56605 -48.189,48.18897 0.03,26.62292 21.567,48.18901 48.189,48.18901"
         id="head"
         style="fill-opacity:1"
         transform="translate(0)" />
      <path
         d="m 20135.673,-423.90657 c -33.91,0.0224 -61.128,28.11029 -61.128,63.06218 v 148.73143 c -0.01,29.00263 41.793,29.00263 41.793,0 V -348.4997 h 9.965 V 29.278193 c -0.01,38.818899 55.775,37.629029 55.775,0 V -192.3317 h 9.519 V 29.278193 c 0.02,37.629029 56.071,38.818899 56.071,0 V -348.4997 h 9.668 v 136.38674 c -0.01,29.30009 41.645,29.30009 41.496,0 v -148.28525 c 0.05,-32.27471 -24.69,-63.80577 -61.872,-63.80577 l -101.287,-0.14876"
         id="body"
         style="fill-opacity:1"
         transform="translate(0)" />
      <path
         id="in-wave"
         style="fill-opacity:1"
         d="M 9075.7735 -592.50752 C 9018.6621 -592.56562 8971.235 -545.02496 8971.235 -488.00697 A 56.317063 56.317063 0 0 0 8971.235 -487.93731 C 8971.245 -481.04754 8971.9721 -474.30702 8973.2994 -467.76165 C 8934.2022 -447.97433 8907.282 -406.79132 8907.282 -360.84838 L 8907.282 -212.13363 C 8907.272 -191.35554 8916.5045 -168.68953 8931.8715 -154.46899 C 8940.1058 -146.84908 8949.3932 -141.60209 8959.0384 -138.30819 L 8959.0384 29.277703 C 8959.0384 52.465629 8969.2217 77.177159 8986.1546 92.591027 C 9003.0909 108.0079 9023.999 114.46638 9043.8319 114.25485 C 9054.6304 114.13967 9065.5406 111.99416 9075.9255 107.69428 C 9086.3379 111.9999 9097.2709 114.14004 9108.0887 114.25485 C 9127.8924 114.46501 9148.7713 108.06653 9165.7534 92.686016 C 9182.7354 77.305501 9193.0216 52.533457 9193.0216 29.277703 L 9193.0216 -138.25753 C 9202.6747 -141.63627 9211.9402 -146.97679 9220.0871 -154.65896 C 9235.3805 -169.08 9244.2938 -191.73249 9244.189 -212.3996 L 9244.189 -360.31011 C 9244.257 -404.42056 9218.5247 -447.35741 9178.2919 -467.90097 C 9179.5944 -474.3263 9180.3439 -480.9386 9180.3817 -487.69667 A 56.317063 56.317063 0 0 0 9180.3817 -488.16528 C 9180.2231 -545.20609 9132.7898 -592.48569 9075.7735 -592.50752 z M 9075.7545 -565.15069 C 9118.0055 -565.13982 9152.9074 -530.353 9153.0249 -488.08929 A 28.957752 28.957752 0 0 1 9153.0249 -487.84865 C 9152.9515 -474.70199 9149.5152 -462.27029 9143.545 -451.38555 C 9187.5184 -442.69575 9216.8971 -402.11065 9216.8321 -360.35444 L 9216.8321 -212.26028 C 9216.9041 -198.07487 9211.0679 -183.7631 9201.3173 -174.56865 C 9191.5666 -165.37419 9179.1835 -161.18154 9167.1846 -161.18154 C 9166.6814 -161.18154 9166.1754 -161.29973 9165.6711 -161.31453 L 9165.6711 29.277703 C 9165.6711 45.950251 9158.6801 62.188348 9147.3952 72.409034 C 9136.1103 82.62972 9121.9672 87.042214 9108.38 86.898021 C 9097.149 86.778835 9085.7863 83.526558 9075.9191 76.715202 C 9066.0876 83.516922 9054.7471 86.778497 9043.5406 86.898021 C 9029.9554 87.042918 9015.8119 82.597754 9004.5634 72.358374 C 8993.3166 62.1206 8986.3952 45.914647 8986.3952 29.277703 L 8986.3952 -161.57416 C 8985.7587 -161.55095 8985.1175 -161.40318 8984.4827 -161.40318 C 8972.5609 -161.40318 8960.2563 -165.47637 8950.4514 -174.54966 C 8940.6488 -183.62088 8934.6325 -197.91149 8934.6325 -212.11463 L 8934.6325 -360.84838 C 8934.6325 -405.142 8966.2033 -443.09538 9008.1033 -451.2019 C 9002.0652 -462.16692 8998.6078 -474.70762 8998.5918 -487.97531 A 28.957752 28.957752 0 0 1 8998.5918 -488.00697 C 8998.5918 -530.25828 9033.4554 -565.19799 9075.7545 -565.15069 z "
         transform="translate(11110.956,6.4207566e-4)" />
      <path
         id="out-wave"
         style="fill-opacity:1"
         d="m 8986.1672,-618.17145 c -39.5393,27.64483 -66.4917,72.59365 -68.848,123.0044 -39.2037,32.4409 -64.3265,81.52373 -64.3265,134.32075 v 148.69576 c -0.012,33.81942 15.599,73.09333 42.0041,97.52835 3.1668,2.93045 6.4293,5.62904 9.7522,8.16272 v 31.84392 103.863678 c -0.01,36.194329 16.6367,77.795962 44.8601,103.487332 1.9514,1.77634 3.9961,3.30728 6.0033,4.93943 h 60.9196 c -16.997,-4.04901 -33.6894,-12.18038 -48.2607,-25.44439 -22.4583,-20.443551 -35.8019,-53.422877 -35.7919,-82.976039 V -121.33474 c -6.4964,-3.74374 -12.7771,-8.20615 -18.6495,-13.64042 -20.7673,-19.21785 -33.1231,-50.01064 -33.1131,-77.16905 V -360.8463 c 0,-49.09753 25.5235,-94.16309 64.2885,-120.85131 -0.104,-2.07111 -0.3293,-4.11372 -0.3293,-6.20595 v -0.10765 c 0,-66.41488 51.6748,-122.72785 116.4755,-130.16024 z m 104.1459,0 c 64.7278,7.42823 116.4428,63.45556 116.6275,129.93226 0,0.23009 0,0.46017 0,0.69026 -0.011,1.96258 -0.2356,3.88215 -0.3356,5.82599 39.5522,27.52162 64.2169,73.91667 64.1429,121.45291 v 147.73953 c 0.1368,26.96 -11.7671,57.69899 -32.4419,77.19438 -5.8673,5.53264 -12.1708,10.09167 -18.7192,13.91906 V 29.279791 c 0,29.647204 -13.4876,62.699986 -36.0008,83.090029 -14.5755,13.20094 -31.2163,21.27708 -48.1468,25.30507 h 60.9513 c 1.9394,-1.57559 3.9185,-3.04534 5.807,-4.75579 28.2877,-25.61996 45.1134,-67.319471 45.1134,-103.639309 V -106.62411 c 3.4258,-2.64116 6.7723,-5.48188 10.0182,-8.54268 26.2929,-24.79298 41.313,-63.97961 41.1429,-97.50936 V -360.2257 c 0.08,-51.40665 -24.3597,-101.62121 -64.1809,-134.92869 -2.3876,-50.51464 -29.365,-95.4091 -68.905,-123.01706 z m -14.3813,754.06054 c -2.2385,0.67767 -4.4931,1.24783 -6.7505,1.7858 h 13.5137 c -2.2609,-0.53797 -4.5209,-1.10787 -6.7632,-1.7858 z"
         transform="translate(11110.956,-0.47005737)" />
    </g>
  </g>
</svg>
